<?xml version="1.0" standalone="no"?>
<!DOCTYPE svg PUBLIC "-//W3C//DTD SVG 20010904//EN"
 "http://www.w3.org/TR/2001/REC-SVG-20010904/DTD/svg10.dtd">
<svg version="1.0" xmlns="http://www.w3.org/2000/svg"
 width="1463.000000pt" height="1463.000000pt" viewBox="0 0 1463.000000 1463.000000"
 preserveAspectRatio="xMidYMid meet">
<metadata>
Created by potrace 1.14, written by Peter Selinger 2001-2017
</metadata>
<g transform="translate(0.000000,1463.000000) scale(0.100000,-0.100000)"
fill="#000000" stroke="none">
<path d="M7748 10985 c-2 -2 -30 -5 -63 -9 -59 -5 -105 -13 -135 -21 -8 -2
-31 -7 -50 -10 -95 -16 -424 -116 -525 -159 -16 -7 -50 -21 -75 -31 -25 -10
-67 -28 -95 -40 -27 -12 -84 -37 -125 -56 -80 -35 -442 -218 -523 -263 -26
-15 -98 -57 -160 -93 -62 -36 -130 -76 -152 -88 -22 -13 -65 -39 -95 -59 -30
-20 -66 -36 -80 -37 -25 -1 -37 -2 -180 -13 -115 -9 -222 -19 -320 -31 -19 -2
-60 -7 -90 -10 -30 -4 -66 -8 -80 -10 -14 -2 -50 -7 -80 -10 -30 -3 -66 -8
-80 -10 -33 -6 -72 -12 -140 -20 -30 -4 -64 -9 -75 -11 -11 -2 -38 -6 -60 -9
-22 -3 -49 -7 -60 -9 -11 -2 -40 -7 -65 -10 -25 -3 -56 -8 -70 -11 -13 -2 -42
-7 -65 -10 -45 -6 -127 -18 -135 -20 -8 -2 -93 -16 -120 -20 -14 -3 -79 -14
-145 -25 -66 -12 -133 -23 -150 -26 -16 -2 -39 -6 -50 -8 -11 -3 -22 -5 -25
-5 -3 -1 0 -5 5 -9 6 -4 53 -63 105 -132 52 -69 112 -145 135 -170 86 -95 164
-178 278 -292 l117 -118 -37 -34 c-21 -18 -54 -46 -73 -62 -46 -38 -95 -82
-193 -174 -341 -319 -505 -567 -533 -807 -3 -32 -8 -61 -10 -64 -2 -3 -34 -14
-71 -23 -200 -52 -278 -88 -353 -166 -103 -105 -115 -216 -41 -365 23 -46 52
-97 64 -112 27 -33 87 -122 87 -129 0 -7 10 -19 76 -91 181 -200 407 -144 617
155 32 45 60 82 61 82 2 0 22 -6 44 -14 98 -35 235 -39 410 -12 151 24 453
139 712 271 164 84 212 107 214 103 1 -1 31 -70 66 -153 68 -162 217 -468 250
-515 11 -15 20 -31 20 -34 0 -3 14 -25 30 -50 45 -66 67 -124 74 -192 5 -54 3
-61 -12 -61 -45 3 -175 -17 -260 -39 -133 -33 -240 -88 -357 -184 -255 -209
-338 -242 -631 -255 -119 -5 -178 -17 -249 -51 -138 -65 -194 -198 -146 -342
23 -69 24 -69 91 -144 85 -95 216 -167 368 -202 154 -35 340 -39 557 -12 114
14 136 18 230 36 28 5 66 12 85 15 19 4 73 15 120 25 47 10 99 21 115 24 150
29 212 38 283 43 75 5 82 3 83 -13 0 -11 3 -28 5 -39 9 -34 12 -374 4 -418 -4
-23 -11 -66 -14 -96 -4 -29 -8 -56 -10 -60 -2 -3 -7 -22 -10 -41 -17 -112 -94
-295 -178 -425 -41 -63 -92 -165 -83 -165 1 0 -3 -20 -10 -44 -18 -60 -11
-170 15 -228 75 -170 243 -224 463 -149 182 62 342 167 518 341 220 219 401
480 565 817 l65 132 55 25 c61 28 198 116 259 166 22 19 91 85 153 147 81 82
117 113 130 109 21 -7 222 -33 282 -37 153 -10 527 0 609 16 14 2 61 9 105 16
44 6 83 12 86 14 3 2 25 6 49 10 24 3 54 10 67 15 13 5 24 8 24 5 0 -2 23 3
52 11 28 9 59 17 67 19 9 2 68 20 131 40 63 21 115 37 115 36 0 -1 31 11 70
28 38 16 72 27 74 25 3 -3 6 -57 7 -122 2 -112 -19 -282 -45 -357 -16 -49 -19
-103 -8 -147 15 -58 79 -121 140 -136 92 -23 161 6 326 138 340 272 545 683
560 1128 1 19 5 22 29 16 141 -31 251 -101 319 -204 40 -59 60 -122 62 -195 3
-105 39 -204 95 -263 162 -173 432 -33 520 270 59 200 53 452 -14 658 -58 177
-122 287 -240 413 -25 27 -45 52 -45 57 0 5 23 32 50 62 93 99 143 163 259
336 64 94 116 174 116 176 0 2 22 40 49 83 26 43 105 177 176 298 215 372 409
685 427 693 5 2 8 8 8 14 0 5 10 24 23 41 13 18 55 75 94 127 130 177 194 291
251 450 33 91 67 216 77 278 3 21 7 47 9 59 25 126 25 400 2 546 -3 20 -8 54
-12 75 -13 88 -34 141 -74 181 -62 63 -143 78 -240 45 -25 -9 -53 -18 -62 -20
-10 -2 -28 -6 -40 -10 -78 -19 -208 -31 -298 -28 -202 6 -373 72 -570 220 -83
62 -228 126 -318 140 -21 3 -57 10 -82 14 -56 11 -274 10 -355 0 -106 -14
-149 -21 -190 -32 -22 -5 -51 -12 -65 -15 -71 -12 -252 -71 -372 -120 l-86
-35 -76 46 c-150 91 -356 168 -511 190 -23 4 -50 8 -61 10 -117 23 -404 23
-534 1 -14 -2 -42 -6 -63 -9 -20 -3 -84 -18 -141 -32 l-103 -26 43 -141 c45
-154 65 -206 115 -312 73 -155 179 -310 296 -433 l60 -62 -66 -78 c-110 -130
-256 -269 -386 -372 -22 -17 -47 -36 -55 -43 -72 -58 -299 -186 -430 -242
-160 -69 -426 -153 -602 -191 -40 -8 -82 -18 -93 -20 -11 -3 -31 -7 -45 -10
-14 -3 -32 -7 -40 -9 -8 -2 -31 -7 -50 -10 -52 -8 -142 -26 -162 -31 -12 -4
-22 3 -30 21 -13 29 -17 25 111 133 230 195 512 474 647 640 10 13 27 33 38
45 57 67 188 251 222 312 106 190 136 265 170 420 15 70 1 201 -29 257 -90
172 -222 238 -489 243 -75 1 -138 1 -140 0z"/>
<path d="M2660 7472 c-63 -43 -241 -163 -395 -266 -154 -104 -286 -194 -293
-201 -9 -8 41 -2 135 16 81 16 166 31 188 35 22 3 58 9 80 14 22 5 41 8 42 6
3 -3 -168 -169 -456 -444 -64 -62 -427 -410 -447 -430 -8 -7 -14 -15 -14 -17
0 -2 325 140 705 310 174 77 339 151 380 170 109 49 111 54 -111 -287 -24 -37
-44 -70 -44 -73 0 -5 386 251 400 265 3 3 73 50 155 105 83 54 178 119 213
143 l62 44 -63 67 c-35 37 -91 110 -125 162 -34 52 -81 121 -104 153 -62 85
-124 191 -149 252 -13 30 -28 54 -34 54 -6 0 -62 -35 -125 -78z"/>
</g>
</svg>
